<?xml version="1.0" encoding="UTF-8" standalone="no"?>
<svg
   xmlns:dc="http://purl.org/dc/elements/1.1/"
   xmlns:cc="http://creativecommons.org/ns#"
   xmlns:rdf="http://www.w3.org/1999/02/22-rdf-syntax-ns#"
   xmlns:svg="http://www.w3.org/2000/svg"
   xmlns="http://www.w3.org/2000/svg"
   xmlns:sodipodi="http://sodipodi.sourceforge.net/DTD/sodipodi-0.dtd"
   xmlns:inkscape="http://www.inkscape.org/namespaces/inkscape"
   x="0px"
   y="0px"
   width="48.02705"
   height="48"
   viewBox="0 0 48.02705 48"
   enable-background="new 0 0 52 52"
   xml:space="preserve"
   version="1.1"
   id="svg4"
   sodipodi:docname="drawing.svg"
   inkscape:version="0.92.5 (2060ec1f9f, 2020-04-08)"><metadata
   id="metadata10"><rdf:RDF><cc:Work
       rdf:about=""><dc:format>image/svg+xml</dc:format><dc:type
         rdf:resource="http://purl.org/dc/dcmitype/StillImage" /><dc:title></dc:title></cc:Work></rdf:RDF></metadata><defs
   id="defs8" /><sodipodi:namedview
   pagecolor="#ffffff"
   bordercolor="#666666"
   borderopacity="1"
   objecttolerance="10"
   gridtolerance="10"
   guidetolerance="10"
   inkscape:pageopacity="0"
   inkscape:pageshadow="2"
   inkscape:window-width="1866"
   inkscape:window-height="1016"
   id="namedview6"
   showgrid="false"
   fit-margin-top="0"
   fit-margin-left="0"
   fit-margin-right="0"
   fit-margin-bottom="0"
   borderlayer="true"
   inkscape:showpageshadow="false"
   inkscape:zoom="4.5384615"
   inkscape:cx="24"
   inkscape:cy="24"
   inkscape:window-x="54"
   inkscape:window-y="27"
   inkscape:window-maximized="1"
   inkscape:current-layer="svg4" />
<path
   d="M 36.940354,19.211567 C 35.674447,13.982818 30.1705,10.790529 24.11616,10.790529 c -7.375288,0 -13.31955,5.889223 -13.31955,13.209471 0,7.320248 5.944262,13.209471 13.31955,13.209471 10.237339,0 9.411748,-5.17371 6.164419,-7.21017 C 28.354198,28.788433 27.308448,25.981421 29.23483,24 c 3.577565,-3.687644 9.356708,2.201578 7.705524,-4.788433 z m -20.089403,9.19159 c -1.541105,0 -2.751973,-1.210868 -2.751973,-2.751973 0,-1.541105 1.210868,-2.751973 2.751973,-2.751973 1.541105,0 2.751973,1.210868 2.751973,2.751973 0,1.541105 -1.210868,2.751973 -2.751973,2.751973 z m 0.550394,-10.457498 c 0,-1.541105 1.210869,-2.751973 2.751974,-2.751973 1.541104,0 2.751973,1.210868 2.751973,2.751973 0,1.541105 -1.210869,2.751973 -2.751973,2.751973 -1.541105,0 -2.751974,-1.210868 -2.751974,-2.751973 z m 6.054341,15.961444 c -1.541105,0 -2.751973,-1.210868 -2.751973,-2.751973 0,-1.541105 1.210868,-2.751973 2.751973,-2.751973 1.541105,0 2.751973,1.210868 2.751973,2.751973 0,1.541105 -1.210868,2.751973 -2.751973,2.751973 z m 4.953552,-14.31026 c -1.541105,0 -2.751973,-1.210868 -2.751973,-2.751973 0,-1.541105 1.210868,-2.751973 2.751973,-2.751973 1.541105,0 2.751973,1.210868 2.751973,2.751973 0,1.541105 -1.210868,2.751973 -2.751973,2.751973 z"
   id="path2"
   inkscape:connector-curvature="0"
   style="stroke-width:0.55039459;fill:#ffffff" />
</svg>