<?xml version="1.0" encoding="UTF-8" standalone="no"?>
<svg
   xmlns:dc="http://purl.org/dc/elements/1.1/"
   xmlns:cc="http://creativecommons.org/ns#"
   xmlns:rdf="http://www.w3.org/1999/02/22-rdf-syntax-ns#"
   xmlns:svg="http://www.w3.org/2000/svg"
   xmlns="http://www.w3.org/2000/svg"
   xmlns:sodipodi="http://sodipodi.sourceforge.net/DTD/sodipodi-0.dtd"
   xmlns:inkscape="http://www.inkscape.org/namespaces/inkscape"
   width="512px"
   height="512px"
   viewBox="0 0 512 512"
   version="1.1"
   id="svg6"
   sodipodi:docname="earth.svg"
   inkscape:version="0.92.5 (2060ec1f9f, 2020-04-08)">
  <metadata
     id="metadata12">
    <rdf:RDF>
      <cc:Work
         rdf:about="">
        <dc:format>image/svg+xml</dc:format>
        <dc:type
           rdf:resource="http://purl.org/dc/dcmitype/StillImage" />
      </cc:Work>
    </rdf:RDF>
  </metadata>
  <defs
     id="defs10" />
  <sodipodi:namedview
     pagecolor="#ffffff"
     bordercolor="#666666"
     borderopacity="1"
     objecttolerance="10"
     gridtolerance="10"
     guidetolerance="10"
     inkscape:pageopacity="0"
     inkscape:pageshadow="2"
     inkscape:window-width="1866"
     inkscape:window-height="1016"
     id="namedview8"
     showgrid="false"
     inkscape:zoom="0.4609375"
     inkscape:cx="260.33898"
     inkscape:cy="245.15254"
     inkscape:window-x="54"
     inkscape:window-y="27"
     inkscape:window-maximized="1"
     inkscape:current-layer="svg6" />
  <title
     id="title2">ionicons-v5-k</title>
  <path
     d="M 354.76982,157.36018 A 139.68331,139.68331 0 1 0 157.23018,354.89982 139.68331,139.68331 0 1 0 354.76982,157.36018 Z M 136.27145,256.13 a 119.49783,119.49783 0 0 1 4.17802,-31.37262 c 4.57713,9.85266 11.22456,18.36461 15.74556,28.47294 5.843,12.99554 21.53243,9.39121 28.46047,20.7779 6.14856,10.10833 -0.4178,22.89185 4.18426,33.46787 3.34243,7.67635 11.22456,9.35379 16.66223,14.96607 5.55615,5.66216 5.43767,13.41957 6.28575,20.80283 a 190.41829,190.41829 0 0 0 4.64571,25.73541 c 0,0.0624 0,0.13095 0.0499,0.19331 C 169.82038,352.78586 136.27145,308.30546 136.27145,256.13 Z M 256,375.85855 a 120.42697,120.42697 0 0 1 -19.95476,-1.67121 c 0.0686,-1.68992 0.0998,-3.26759 0.26814,-4.3651 1.51532,-9.91502 6.47906,-19.61179 13.17638,-27.03246 6.61625,-7.32091 15.68319,-12.27218 21.27053,-20.57835 5.47508,-8.10662 7.11511,-19.01938 4.85773,-28.49165 -3.32371,-13.99328 -22.33686,-18.66394 -32.58861,-26.25298 -5.89289,-4.36511 -11.13725,-11.11231 -18.87596,-11.66106 -3.56691,-0.24944 -6.55389,0.51757 -10.08962,-0.39286 -3.24265,-0.84185 -5.78688,-2.58789 -9.24155,-2.13267 -6.45412,0.84808 -10.52614,7.74494 -17.46041,6.80956 -6.57884,-0.87925 -13.35722,-8.58054 -14.85383,-14.84759 -1.92064,-8.05673 4.45241,-10.66956 11.28068,-11.38668 2.84979,-0.29932 6.04878,-0.62359 8.78633,0.42404 3.60432,1.33447 5.30671,4.86397 8.54313,6.64743 6.06749,3.32995 7.29596,-1.98924 6.36681,-7.37703 -1.39059,-8.0692 -3.01192,-11.3555 4.18427,-16.91166 4.98869,-3.82881 9.25402,-6.59754 8.45582,-13.47569 -0.47392,-4.04084 -2.68765,-5.86795 -0.62358,-9.89008 1.5652,-3.06181 5.86171,-5.8243 8.66161,-7.6514 7.22737,-4.71432 30.96106,-4.36511 21.26429,-17.56019 -2.84979,-3.87247 -8.10662,-10.79428 -13.09531,-11.74213 -6.23586,-1.17858 -9.00458,5.78064 -13.35098,8.84869 -4.48982,3.17405 -13.2325,6.77838 -17.72856,1.87076 -6.04878,-6.60378 4.00966,-8.76763 6.23587,-13.38216 1.02891,-2.15138 0,-5.13835 -1.73357,-7.95073 q 3.3736,-1.42177 6.85944,-2.63777 a 9.727945,9.727945 0 0 0 4.98869,1.87076 c 4.1718,0.27438 8.10663,-1.983 11.74837,0.86055 4.04084,3.11793 6.95298,7.059 12.31583,8.03179 5.18823,0.94162 10.68203,-2.08278 11.96662,-7.39573 0.77948,-3.23018 0,-6.64119 -0.74831,-9.97738 a 118.99896,118.99896 0 0 1 65.47656,20.08571 c -1.24718,-0.47392 -2.73755,-0.4178 -4.57713,0.43651 -3.78517,1.75851 -9.14801,6.23586 -9.59075,10.6758 -0.50511,5.03857 6.92804,5.74946 10.45754,5.74946 5.30048,0 10.66956,-2.36963 8.96093,-8.49324 -0.74207,-2.65648 -1.75228,-5.41897 -3.37984,-7.09018 a 120.52051,120.52051 0 0 1 11.22456,8.81751 c -0.0561,0.0561 -0.11225,0.10601 -0.16837,0.16837 -3.59186,3.74152 -7.76365,6.70355 -10.22058,11.25573 -1.73357,3.20523 -3.6854,4.72679 -7.19619,5.55615 -1.93311,0.45522 -4.14061,0.62359 -5.76193,1.92065 -4.51477,3.55444 -1.94559,12.09757 2.33221,14.66051 5.40649,3.23641 13.42581,1.71486 17.50407,-2.90591 3.18652,-3.6168 5.06352,-9.89631 10.79427,-9.89008 a 9.6032277,9.6032277 0 0 1 6.74721,2.75002 c 2.36962,2.45693 1.90193,4.75173 2.40704,7.81977 0.89173,5.45014 5.69958,2.49434 8.6242,-0.25567 a 119.80338,119.80338 0 0 1 5.76193,11.70471 c -3.2177,4.63325 -5.77441,9.6843 -13.51311,4.28404 -4.63325,-3.23641 -7.48304,-7.93202 -13.30109,-9.39121 -5.08223,-1.24717 -10.28918,0.0499 -15.30905,0.91667 -5.70581,0.99151 -12.47172,1.42802 -16.79941,5.74947 -4.18426,4.16555 -6.39799,9.74041 -10.8504,13.92468 -8.61173,8.10662 -12.24723,16.95531 -6.67237,28.41682 5.36284,11.01877 16.58116,16.99896 28.68496,16.21324 11.89179,-0.79195 24.24504,-7.68881 23.90206,9.59076 -0.12471,6.11738 1.15364,10.35153 3.03063,16.0324 1.73981,5.23813 1.62133,10.31412 2.02042,15.72061 a 98.526622,98.526622 0 0 0 2.9558,18.75124 A 119.57266,119.57266 0 0 1 256,375.85855 Z"
     id="path4"
     inkscape:connector-curvature="0"
     style="stroke-width:0.62358624;fill:#ffffff" />
</svg>
