<?xml version="1.0" encoding="UTF-8" standalone="no"?>
<svg
   xmlns:dc="http://purl.org/dc/elements/1.1/"
   xmlns:cc="http://creativecommons.org/ns#"
   xmlns:rdf="http://www.w3.org/1999/02/22-rdf-syntax-ns#"
   xmlns:svg="http://www.w3.org/2000/svg"
   xmlns="http://www.w3.org/2000/svg"
   xmlns:sodipodi="http://sodipodi.sourceforge.net/DTD/sodipodi-0.dtd"
   xmlns:inkscape="http://www.inkscape.org/namespaces/inkscape"
   width="20px"
   height="20px"
   viewBox="0 0 20 20"
   version="1.1"
   id="svg4"
   sodipodi:docname="random.svg"
   inkscape:version="0.92.5 (2060ec1f9f, 2020-04-08)">
  <metadata
     id="metadata10">
    <rdf:RDF>
      <cc:Work
         rdf:about="">
        <dc:format>image/svg+xml</dc:format>
        <dc:type
           rdf:resource="http://purl.org/dc/dcmitype/StillImage" />
      </cc:Work>
    </rdf:RDF>
  </metadata>
  <defs
     id="defs8" />
  <sodipodi:namedview
     pagecolor="#ffffff"
     bordercolor="#666666"
     borderopacity="1"
     objecttolerance="10"
     gridtolerance="10"
     guidetolerance="10"
     inkscape:pageopacity="0"
     inkscape:pageshadow="2"
     inkscape:window-width="884"
     inkscape:window-height="480"
     id="namedview6"
     showgrid="false"
     inkscape:zoom="5.9"
     inkscape:cx="12.950706"
     inkscape:cy="11.064275"
     inkscape:window-x="54"
     inkscape:window-y="27"
     inkscape:window-maximized="0"
     inkscape:current-layer="svg4" />
  <path
     d="m 13.254237,4.5762712 c 1.198177,0 2.169492,0.9713144 2.169492,2.1694915 v 6.5084743 c 0,1.198177 -0.971315,2.169492 -2.169492,2.169492 H 6.7457627 c -1.1981771,0 -2.1694915,-0.971315 -2.1694915,-2.169492 V 6.7457627 c 0,-1.1981771 0.9713144,-2.1694915 2.1694915,-2.1694915 z m -0.542373,7.0508478 c -0.599088,0 -1.084745,0.485657 -1.084745,1.084745 0,0.599089 0.485657,1.084746 1.084745,1.084746 0.599089,0 1.084746,-0.485657 1.084746,-1.084746 0,-0.599088 -0.485657,-1.084745 -1.084746,-1.084745 z M 10,8.9152542 c -0.5990885,0 -1.0847458,0.4856573 -1.0847458,1.0847458 0,0.599089 0.4856573,1.084746 1.0847458,1.084746 0.599089,0 1.084746,-0.485657 1.084746,-1.084746 C 11.084746,9.4009115 10.599089,8.9152542 10,8.9152542 Z M 7.2881356,6.2033898 c -0.5990886,0 -1.0847458,0.4856572 -1.0847458,1.0847458 0,0.5990885 0.4856572,1.0847458 1.0847458,1.0847458 0.5990885,0 1.0847458,-0.4856573 1.0847458,-1.0847458 0,-0.5990886 -0.4856573,-1.0847458 -1.0847458,-1.0847458 z"
     id="path2"
     style="fill:#ffffff;stroke-width:0.54237288"
     inkscape:connector-curvature="0" />
</svg>
