<?xml version="1.0" encoding="UTF-8" standalone="no"?>
<!-- Uploaded to: SVG Repo, www.svgrepo.com, Generator: SVG Repo Mixer Tools -->

<svg
   width="800px"
   height="800px"
   viewBox="0 0 24 24"
   fill="none"
   version="1.1"
   id="svg4"
   sodipodi:docname="text-circle-svgrepo-com.svg"
   inkscape:version="1.2.2 (b0a8486541, 2022-12-01)"
   xmlns:inkscape="http://www.inkscape.org/namespaces/inkscape"
   xmlns:sodipodi="http://sodipodi.sourceforge.net/DTD/sodipodi-0.dtd"
   xmlns="http://www.w3.org/2000/svg"
   xmlns:svg="http://www.w3.org/2000/svg">
  <defs
     id="defs8" />
  <sodipodi:namedview
     id="namedview6"
     pagecolor="#ffffff"
     bordercolor="#000000"
     borderopacity="0.25"
     inkscape:showpageshadow="2"
     inkscape:pageopacity="0.0"
     inkscape:pagecheckerboard="0"
     inkscape:deskcolor="#d1d1d1"
     showgrid="false"
     inkscape:zoom="0.513125"
     inkscape:cx="-35.079172"
     inkscape:cy="615.83435"
     inkscape:window-width="1920"
     inkscape:window-height="995"
     inkscape:window-x="0"
     inkscape:window-y="0"
     inkscape:window-maximized="1"
     inkscape:current-layer="svg4" />
  <path
     fill-rule="evenodd"
     clip-rule="evenodd"
     d="m 12,5.5086166 c -3.5850937,0 -6.4913834,2.9062897 -6.4913834,6.4913834 0,3.585061 2.9062897,6.491383 6.4913834,6.491383 3.585061,0 6.491383,-2.906322 6.491383,-6.491383 C 18.491383,8.4149063 15.585061,5.5086166 12,5.5086166 Z M 10.670545,8.2674545 C 10.391507,8.2674091 10.130637,8.2673637 9.9175123,8.2992039 9.6767469,8.3351726 9.4294122,8.4201968 9.2316976,8.6398717 9.0405978,8.8522113 8.9731328,9.105239 8.9438827,9.3469327 8.9165474,9.5728458 8.9165669,9.852897 8.9165929,10.169131 v 0.370308 c 0,0.268873 0.2179741,0.486853 0.4868537,0.486853 0.2688796,0 0.4868538,-0.21798 0.4868538,-0.486853 v -0.342603 c 0,-0.3524232 8.374e-4,-0.5726109 0.02024,-0.7329351 0.0091,-0.075222 0.02048,-0.1185651 0.029679,-0.1434077 0.00776,-0.020954 0.013301,-0.027101 0.015144,-0.029146 l 5.258e-4,-6.102e-4 c 8.829e-4,-0.00106 0.00153,-0.00184 0.00739,-0.00452 0.010789,-0.00493 0.038468,-0.01508 0.098098,-0.023986 0.132496,-0.019792 0.319097,-0.021065 0.640349,-0.021065 h 0.811423 v 5.517676 h -1.135992 c -0.268879,0 -0.4868534,0.217981 -0.4868534,0.486854 0,0.268873 0.2179744,0.486853 0.4868534,0.486853 h 3.570261 c 0.268873,0 0.486854,-0.21798 0.486854,-0.486853 0,-0.268873 -0.217981,-0.486854 -0.486854,-0.486854 h -1.460564 v -5.51768 h 0.811423 c 0.321258,0 0.507886,0.00127 0.640375,0.021065 0.05959,0.00891 0.08731,0.019052 0.09808,0.023986 0.0058,0.00268 0.0065,0.00346 0.0074,0.00452 l 3.89e-4,5.129e-4 c 0.0019,0.00204 0.0075,0.00829 0.01525,0.029244 0.0092,0.024843 0.02058,0.068186 0.02967,0.1434077 0.01941,0.1603242 0.02025,0.3805119 0.02025,0.7329354 v 0.342603 c 0,0.268873 0.21798,0.486853 0.486853,0.486853 0.268873,0 0.486854,-0.21798 0.486854,-0.486853 v -0.370314 c 0,-0.3162283 6.5e-5,-0.5962795 -0.02726,-0.8221926 C 15.026867,9.105239 14.959422,8.8522113 14.768315,8.6398717 14.570588,8.4201968 14.323266,8.3351726 14.082501,8.2992039 13.869389,8.2673637 13.6085,8.2674091 13.329435,8.2674545 Z"
     fill="#1c274c"
     id="path2"
     style="stroke-width:0.649138;fill:#ffffff" />
</svg>
