<?xml version="1.0" encoding="UTF-8" standalone="no"?>
<!-- Generator: Adobe Illustrator 18.0.0, SVG Export Plug-In . SVG Version: 6.00 Build 0)  -->

<svg
   xmlns:dc="http://purl.org/dc/elements/1.1/"
   xmlns:cc="http://creativecommons.org/ns#"
   xmlns:rdf="http://www.w3.org/1999/02/22-rdf-syntax-ns#"
   xmlns:svg="http://www.w3.org/2000/svg"
   xmlns="http://www.w3.org/2000/svg"
   xmlns:sodipodi="http://sodipodi.sourceforge.net/DTD/sodipodi-0.dtd"
   xmlns:inkscape="http://www.inkscape.org/namespaces/inkscape"
   version="1.1"
   id="Capa_1"
   x="0px"
   y="0px"
   viewBox="0 0 399.99999 400"
   xml:space="preserve"
   sodipodi:docname="piaget-answer3.svg"
   inkscape:version="0.92.5 (2060ec1f9f, 2020-04-08)"
   width="400"
   height="400"><metadata
   id="metadata39"><rdf:RDF><cc:Work
       rdf:about=""><dc:format>image/svg+xml</dc:format><dc:type
         rdf:resource="http://purl.org/dc/dcmitype/StillImage" /><dc:title></dc:title></cc:Work></rdf:RDF></metadata><defs
   id="defs37"><clipPath
     clipPathUnits="userSpaceOnUse"
     id="clipPath878"><rect
       style="opacity:1;vector-effect:none;fill:#e6e6e6;fill-opacity:1;fill-rule:nonzero;stroke:#000000;stroke-width:5;stroke-linecap:round;stroke-linejoin:round;stroke-miterlimit:4;stroke-dasharray:none;stroke-dashoffset:0;stroke-opacity:1;paint-order:fill markers stroke"
       id="rect880"
       width="175.11436"
       height="108.79745"
       x="-35.872482"
       y="130.30023"
       ry="0" /></clipPath><clipPath
     clipPathUnits="userSpaceOnUse"
     id="clipPath878-7"><rect
       style="opacity:1;vector-effect:none;fill:#e6e6e6;fill-opacity:1;fill-rule:nonzero;stroke:#000000;stroke-width:5;stroke-linecap:round;stroke-linejoin:round;stroke-miterlimit:4;stroke-dasharray:none;stroke-dashoffset:0;stroke-opacity:1;paint-order:fill markers stroke"
       id="rect880-5"
       width="175.11436"
       height="108.79745"
       x="-35.872482"
       y="130.30023"
       ry="0" /></clipPath><clipPath
     clipPathUnits="userSpaceOnUse"
     id="clipPath962"><path
       sodipodi:nodetypes="ssscsssscssss"
       inkscape:connector-curvature="0"
       id="path964"
       d="m 61.800806,10.775416 c -5.279661,0 -9.529297,5.03714 -9.529297,9.52929 0,6.10503 4.859349,47.130671 -1.290571,71.354899 C 40.858921,131.52972 10.775416,151.28007 10.775416,198.7962 v 162.10422 c 0,7.39241 5.951337,13.34375 13.34375,13.34375 H 126.04495 c 7.39241,0 13.34375,-5.95134 13.34375,-13.34375 V 198.7962 c 0,-47.51613 -30.08265,-67.26648 -41.14674,-107.136595 -6.60769,-23.811222 -0.349357,-65.249869 -0.349357,-71.354899 0,-4.49215 -4.249636,-9.52929 -9.529297,-9.52929 z"
       style="opacity:1;vector-effect:none;fill:#cccccc;fill-opacity:1;fill-rule:nonzero;stroke:#000000;stroke-width:1.5508312;stroke-linecap:round;stroke-linejoin:round;stroke-miterlimit:4;stroke-dasharray:none;stroke-dashoffset:0;stroke-opacity:1;paint-order:fill markers stroke" /></clipPath><clipPath
     clipPathUnits="userSpaceOnUse"
     id="clipPath1005"><path
       style="opacity:1;vector-effect:none;fill:#1a1a1a;fill-opacity:1;fill-rule:nonzero;stroke:none;stroke-width:1.46509993;stroke-linecap:round;stroke-linejoin:round;stroke-miterlimit:4;stroke-dasharray:none;stroke-dashoffset:0;stroke-opacity:1;paint-order:fill markers stroke"
       d="m 62.535005,17.042975 c -8.574429,0 -12.781385,6.842776 -12.781385,12.781379 0,5.767538 4.59072,44.525246 -1.219228,67.410338 C 38.971929,134.90075 10.551467,153.55929 10.551467,198.44868 v 153.14296 c 0,11.24042 9.401218,16.38497 16.384972,16.38497 h 96.291241 c 6.98375,0 16.38497,-3.54861 16.38497,-16.38497 V 198.44868 c 0,-44.88939 -28.41966,-63.54793 -38.87211,-101.213988 -6.242414,-22.494917 -0.33005,-61.6428 -0.33005,-67.410338 0,-5.702122 -4.758743,-12.781379 -12.781383,-12.781379 z"
       id="path1007"
       inkscape:connector-curvature="0"
       sodipodi:nodetypes="ssscsssscssss" /></clipPath><clipPath
     clipPathUnits="userSpaceOnUse"
     id="clipPath1033"><rect
       style="opacity:1;vector-effect:none;fill:#666666;fill-opacity:1;fill-rule:nonzero;stroke:none;stroke-width:2;stroke-linecap:round;stroke-linejoin:round;stroke-miterlimit:4;stroke-dasharray:none;stroke-dashoffset:0;stroke-opacity:1;paint-order:fill markers stroke"
       id="rect1035"
       width="95.311821"
       height="443.21399"
       x="-20.229343"
       y="-19.017853" /></clipPath></defs><sodipodi:namedview
   pagecolor="#ffffff"
   bordercolor="#666666"
   borderopacity="1"
   objecttolerance="10"
   gridtolerance="10"
   guidetolerance="10"
   inkscape:pageopacity="0"
   inkscape:pageshadow="2"
   inkscape:window-width="2506"
   inkscape:window-height="1376"
   id="namedview35"
   showgrid="true"
   inkscape:zoom="2"
   inkscape:cx="86.564919"
   inkscape:cy="191.64909"
   inkscape:window-x="54"
   inkscape:window-y="27"
   inkscape:window-maximized="1"
   inkscape:current-layer="layer6"
   borderlayer="true"
   inkscape:showpageshadow="false"
   fit-margin-top="10"
   fit-margin-left="10"
   fit-margin-right="10"
   fit-margin-bottom="10"
   showborder="true"
   inkscape:snap-bbox="true"
   inkscape:snap-bbox-edge-midpoints="true"
   inkscape:snap-midpoints="true"
   inkscape:snap-smooth-nodes="true"
   inkscape:snap-intersection-paths="true"
   showguides="true"
   inkscape:guide-bbox="true"
   inkscape:snap-global="true"
   inkscape:snap-page="true"
   inkscape:snap-object-midpoints="true"
   inkscape:snap-center="true"><inkscape:grid
     type="xygrid"
     id="grid1554"
     enabled="true"
     empspacing="4"
     spacingx="99.999999"
     spacingy="99.999999" /><sodipodi:guide
     position="199.99999,499.99999"
     orientation="1,0"
     id="guide5263"
     inkscape:locked="false" /><sodipodi:guide
     position="-99.999996,200"
     orientation="0,1"
     id="guide5265"
     inkscape:locked="false" /></sodipodi:namedview>

<g
   id="g4"
   transform="translate(58.633334,160.19872)">
</g>
<g
   id="g6"
   transform="translate(58.633334,160.19872)">
</g>
<g
   id="g8"
   transform="translate(58.633334,160.19872)">
</g>
<g
   id="g10"
   transform="translate(58.633334,160.19872)">
</g>
<g
   id="g12"
   transform="translate(58.633334,160.19872)">
</g>
<g
   id="g14"
   transform="translate(58.633334,160.19872)">
</g>
<g
   id="g16"
   transform="translate(58.633334,160.19872)">
</g>
<g
   id="g18"
   transform="translate(58.633334,160.19872)">
</g>
<g
   id="g20"
   transform="translate(58.633334,160.19872)">
</g>
<g
   id="g22"
   transform="translate(58.633334,160.19872)">
</g>
<g
   id="g24"
   transform="translate(58.633334,160.19872)">
</g>
<g
   id="g26"
   transform="translate(58.633334,160.19872)">
</g>
<g
   id="g28"
   transform="translate(58.633334,160.19872)">
</g>
<g
   id="g30"
   transform="translate(58.633334,160.19872)">
</g>
<g
   id="g32"
   transform="translate(58.633334,160.19872)">
</g>
<g
   inkscape:groupmode="layer"
   id="layer6"
   inkscape:label="question"
   style="display:none"><path
     style="display:inline;opacity:1;vector-effect:none;fill:#2c5aa0;fill-opacity:0.49305558;fill-rule:nonzero;stroke:none;stroke-width:1.5508312;stroke-linecap:round;stroke-linejoin:round;stroke-miterlimit:4;stroke-dasharray:none;stroke-dashoffset:0;stroke-opacity:1;paint-order:fill markers stroke"
     d="m 135.69333,248.5488 v 119.8418 c 0,7.39241 5.95133,13.34375 13.34375,13.34375 h 101.92576 c 7.39242,0 13.34375,-5.95134 13.34375,-13.34375 V 248.5488 Z"
     id="path1128-3"
     inkscape:connector-curvature="0" /><path
     style="display:inline;opacity:1;vector-effect:none;fill:#ececec;fill-opacity:0.27083333;fill-rule:nonzero;stroke:none;stroke-width:1.5508312;stroke-linecap:round;stroke-linejoin:round;stroke-miterlimit:4;stroke-dasharray:none;stroke-dashoffset:0;stroke-opacity:1;paint-order:fill markers stroke"
     d="m 186.71874,14.26563 c -9.07617,0 -13.5293,7.243186 -13.5293,13.52929 0,6.10503 4.85935,47.130674 -1.29057,71.354894 -10.12202,39.870116 -40.20552,59.620466 -40.20552,107.136596 v 162.10422 c 0,11.89816 9.95134,17.34375 17.34375,17.34375 h 101.92578 c 7.39241,0 17.34375,-3.75626 17.34375,-17.34375 V 206.28641 c 0,-47.51613 -30.08265,-67.26648 -41.14674,-107.136596 -6.60769,-23.81122 -0.34936,-65.249864 -0.34936,-71.354894 0,-6.035785 -5.0372,-13.52929 -13.52929,-13.52929 z"
     id="path1139-5"
     inkscape:connector-curvature="0"
     sodipodi:nodetypes="ssscsssscssss" /><path
     inkscape:connector-curvature="0"
     style="display:inline;opacity:1;vector-effect:none;fill:#999999;fill-opacity:1;fill-rule:nonzero;stroke:none;stroke-width:1.5508312;stroke-linecap:round;stroke-linejoin:round;stroke-miterlimit:4;stroke-dasharray:none;stroke-dashoffset:0;stroke-opacity:1;paint-order:fill markers stroke"
     d="m 186.71874,12.26563 c -9.07617,0 -15.5293,9.243193 -15.5293,15.529297 0,6.10503 4.85891,47.131237 -1.29101,71.355467 -10.12202,39.870116 -40.20508,59.620586 -40.20508,107.136716 v 162.10352 c 0,11.89816 11.95134,19.34375 19.34375,19.34375 h 101.92578 c 7.39241,0 19.34375,-5.75626 19.34375,-19.34375 V 206.28711 c 0,-47.51613 -30.08239,-67.2666 -41.14648,-107.136716 -6.60769,-23.81122 -0.34961,-65.250437 -0.34961,-71.355467 0,-6.035785 -7.03721,-15.529297 -15.5293,-15.529297 z m 0,6 h 26.5625 c 5.27966,0 9.5293,5.037147 9.5293,9.529297 0,6.10503 -6.25808,47.544247 0.34961,71.355467 11.06409,39.870116 41.14648,59.620586 41.14648,107.136716 v 162.10352 c 0,7.39241 -5.95134,13.34375 -13.34375,13.34375 H 149.0371 c -7.39241,0 -13.34375,-5.95134 -13.34375,-13.34375 V 206.28711 c 0,-47.51613 30.08306,-67.2666 40.20508,-107.136716 6.14992,-24.22423 1.29101,-65.250437 1.29101,-71.355467 0,-4.49215 4.24964,-9.529297 9.5293,-9.529297 z"
     id="path984-6"
     sodipodi:nodetypes="ssssssssssssssssssssssssss" /></g><g
   inkscape:groupmode="layer"
   id="layer9"
   inkscape:label="answer1"
   style="display:none"><path
     style="display:inline;opacity:1;vector-effect:none;fill:#2c5aa0;fill-opacity:0.49411765;fill-rule:nonzero;stroke:none;stroke-width:1.5508312;stroke-linecap:round;stroke-linejoin:round;stroke-miterlimit:4;stroke-dasharray:none;stroke-dashoffset:0;stroke-opacity:1;paint-order:fill markers stroke"
     d="M 287.69301,172.8166 67.753552,299.18965 c -3.301161,8.79922 1.649182,16.94729 7.179687,20.42773 l 86.265631,54.28711 c 6.25658,3.93738 16.67899,6.0584 23.91601,-5.4414 l 86.33985,-137.19727 c 13.10398,-20.82253 15.4063,-39.64018 16.23828,-58.44922 z"
     id="path1383"
     inkscape:connector-curvature="0" /></g><g
   inkscape:groupmode="layer"
   id="layer10"
   inkscape:label="answer2"
   style="display:none"><path
     style="display:inline;opacity:1;vector-effect:none;fill:#2c5aa0;fill-opacity:0.49411765;fill-rule:nonzero;stroke:none;stroke-width:1.5508312;stroke-linecap:round;stroke-linejoin:round;stroke-miterlimit:4;stroke-dasharray:none;stroke-dashoffset:0;stroke-opacity:1;paint-order:fill markers stroke"
     d="m 283.74574,202.98848 -190.296876,54.64453 -23.957031,38.0664 c -6.337246,10.07003 -0.815177,19.98059 5.441406,23.91797 l 86.265631,54.28711 c 6.25658,3.93738 16.67899,6.0584 23.91601,-5.4414 l 86.33985,-137.19727 c 6.16838,-9.80171 9.93363,-19.15582 12.29101,-28.27734 z"
     id="path1388"
     inkscape:connector-curvature="0" /></g><g
   inkscape:groupmode="layer"
   id="layer11"
   inkscape:label="answer3"
   style="display:inline"><path
     style="display:inline;opacity:1;vector-effect:none;fill:#2c5aa0;fill-opacity:0.49411765;fill-rule:nonzero;stroke:none;stroke-width:1.5508312;stroke-linecap:round;stroke-linejoin:round;stroke-miterlimit:4;stroke-dasharray:none;stroke-dashoffset:0;stroke-opacity:1;paint-order:fill markers stroke"
     d="m 110.6598,230.2834 -41.167967,65.41601 c -6.337246,10.07003 -0.815177,19.98059 5.441406,23.91797 l 86.265631,54.28711 c 6.25658,3.93738 16.67899,6.0584 23.91601,-5.4414 l 86.33985,-137.19727 c 0.2073,-0.32941 0.38986,-0.65401 0.59179,-0.98242 z"
     id="path1393"
     inkscape:connector-curvature="0" /></g><g
   inkscape:groupmode="layer"
   id="layer12"
   inkscape:label="answer4"
   style="display:none"><path
     style="display:inline;opacity:1;vector-effect:none;fill:#2c5aa0;fill-opacity:0.49305558;fill-rule:nonzero;stroke:none;stroke-width:1.5508312;stroke-linecap:round;stroke-linejoin:round;stroke-miterlimit:4;stroke-dasharray:none;stroke-dashoffset:0;stroke-opacity:1;paint-order:fill markers stroke"
     d="M 136.70771,196.4025 72.87709,297.83084 c -3.937374,6.25657 -2.070275,14.46333 4.186308,18.4007 l 86.265072,54.28811 c 6.25659,3.93739 14.46334,2.07028 18.40071,-4.1863 L 245.5598,264.90501 Z"
     id="path1128"
     inkscape:connector-curvature="0" /></g><g
   inkscape:groupmode="layer"
   id="layer8"
   inkscape:label="incliné"
   style="display:inline"><path
     style="display:inline;opacity:1;vector-effect:none;fill:#ececec;fill-opacity:0.27083333;fill-rule:nonzero;stroke:none;stroke-width:1.5508312;stroke-linecap:round;stroke-linejoin:round;stroke-miterlimit:4;stroke-dasharray:none;stroke-dashoffset:0;stroke-opacity:1;paint-order:fill markers stroke"
     d="m 304.67803,25.293835 c -7.68163,-4.834184 -15.30844,-1.075744 -18.65658,4.244513 -3.25168,5.167004 -20.9902,42.477342 -39.09761,59.70397 -29.80256,28.352912 -65.78332,29.045462 -91.09155,69.260832 L 69.491689,295.70038 c -6.337246,10.07003 -0.815365,19.97923 5.441218,23.91661 l 86.265083,54.28812 c 6.25658,3.93738 16.67959,6.05858 23.91663,-5.44122 l 86.3406,-137.19722 c 25.30823,-40.21537 10.36723,-72.95386 22.2389,-112.59101 7.09,-23.672078 34.45796,-55.410429 37.70965,-60.577433 3.2148,-5.108398 2.94278,-14.133474 -4.24452,-18.656566 z"
     id="path1139"
     inkscape:connector-curvature="0"
     sodipodi:nodetypes="ssscsssscssss" /><path
     inkscape:connector-curvature="0"
     style="display:inline;opacity:1;vector-effect:none;fill:#999999;fill-opacity:1;fill-rule:nonzero;stroke:none;stroke-width:1.5508312;stroke-linecap:round;stroke-linejoin:round;stroke-miterlimit:4;stroke-dasharray:none;stroke-dashoffset:0;stroke-opacity:1;paint-order:fill markers stroke"
     d="m 305.74328,23.601132 c -7.68164,-4.834184 -18.06641,-0.448282 -21.41453,4.871974 -3.25169,5.167004 -20.99089,42.477587 -39.09829,59.704216 -29.80257,28.352918 -65.78301,29.045808 -91.09125,69.261168 L 67.798985,294.63513 c -6.337247,10.07003 -0.187909,22.73719 6.068674,26.67457 l 86.265081,54.28812 c 6.25659,3.93737 19.43755,5.43112 26.67458,-6.06868 L 273.14755,232.3325 c 25.30823,-40.21536 10.36752,-72.95381 22.23918,-112.59097 7.09,-23.672078 34.45806,-55.411039 37.70974,-60.578044 3.21481,-5.108398 2.31532,-16.891437 -4.87197,-21.414528 z m -3.19575,5.078112 22.48123,14.147825 c 4.46844,2.812075 5.38223,9.338733 2.9896,13.140674 -3.25168,5.167003 -30.61974,36.905961 -37.70974,60.578047 -11.87167,39.63715 3.06904,72.3756 -22.23919,112.59098 L 181.7292,366.3334 c -3.93738,6.25657 -12.14413,8.12368 -18.40071,4.1863 L 77.063403,316.23158 C 70.80682,312.2942 68.93972,304.08745 72.877096,297.83088 L 159.21733,160.63424 c 25.30824,-40.21537 61.28867,-40.90825 91.09124,-69.261175 18.1074,-17.226627 35.84661,-54.53721 39.09829,-59.704215 2.39263,-3.801939 8.67222,-5.80168 13.14067,-2.989606 z"
     id="path984"
     sodipodi:nodetypes="ssssssssssssssssssssssssss" /></g></svg>