<?xml version="1.0" encoding="UTF-8" standalone="no"?>
<!-- Generator: Adobe Illustrator 19.0.0, SVG Export Plug-In . SVG Version: 6.00 Build 0)  -->

<svg
   xmlns:dc="http://purl.org/dc/elements/1.1/"
   xmlns:cc="http://creativecommons.org/ns#"
   xmlns:rdf="http://www.w3.org/1999/02/22-rdf-syntax-ns#"
   xmlns:svg="http://www.w3.org/2000/svg"
   xmlns="http://www.w3.org/2000/svg"
   xmlns:sodipodi="http://sodipodi.sourceforge.net/DTD/sodipodi-0.dtd"
   xmlns:inkscape="http://www.inkscape.org/namespaces/inkscape"
   version="1.1"
   id="Capa_1"
   x="0px"
   y="0px"
   viewBox="0 0 492.88251 491.69086"
   xml:space="preserve"
   sodipodi:docname="refresh.svg"
   width="492.88251"
   height="491.69086"
   inkscape:version="0.92.5 (2060ec1f9f, 2020-04-08)"><metadata
   id="metadata45"><rdf:RDF><cc:Work
       rdf:about=""><dc:format>image/svg+xml</dc:format><dc:type
         rdf:resource="http://purl.org/dc/dcmitype/StillImage" /><dc:title></dc:title></cc:Work></rdf:RDF></metadata><defs
   id="defs43" /><sodipodi:namedview
   pagecolor="#ffffff"
   bordercolor="#666666"
   borderopacity="1"
   objecttolerance="10"
   gridtolerance="10"
   guidetolerance="10"
   inkscape:pageopacity="0"
   inkscape:pageshadow="2"
   inkscape:window-width="1866"
   inkscape:window-height="1016"
   id="namedview41"
   showgrid="false"
   borderlayer="true"
   inkscape:showpageshadow="false"
   fit-margin-top="0"
   fit-margin-left="0"
   fit-margin-right="0"
   fit-margin-bottom="0"
   inkscape:zoom="0.95763093"
   inkscape:cx="209.72885"
   inkscape:cy="184.34313"
   inkscape:window-x="54"
   inkscape:window-y="27"
   inkscape:window-maximized="1"
   inkscape:current-layer="Capa_1" />
<g
   id="g8"
   transform="matrix(0.64830473,0,0,0.64830473,86.672382,86.076561)"
   style="fill:#ffffff">
	<g
   id="g6"
   style="fill:#ffffff">
		<path
   d="m 122.941,374.241 c -20.1,-18.1 -34.6,-39.8 -44.1,-63.1 -25.2,-61.8 -13.4,-135.3 35.8,-186 l 45.4,45.4 c 2.5,2.5 7,0.7 7.6,-3 l 24.8,-162.3 c 0.4,-2.7 -1.9,-5 -4.6,-4.6 l -162.4,24.8 c -3.7,0.6 -5.5,5.1 -3,7.6 l 45.5,45.5 c -75.1,76.8 -87.9,192 -38.6,282 14.8,27.1 35.3,51.9 61.4,72.7 44.4,35.3 99,52.2 153.2,51.1 l 10.2,-66.7 c -46.7,4 -94.7,-10.4 -131.2,-43.4 z"
   id="path2"
   inkscape:connector-curvature="0"
   style="fill:#ffffff" />
		<path
   d="m 424.941,414.341 c 75.1,-76.8 87.9,-192 38.6,-282 -14.8,-27.1 -35.3,-51.9 -61.4,-72.7 -44.4,-35.3 -99,-52.2 -153.2,-51.1 l -10.2,66.7 c 46.6,-4 94.7,10.4 131.2,43.4 20.1,18.1 34.6,39.8 44.1,63.1 25.2,61.8 13.4,135.3 -35.8,186 l -45.4,-45.4 c -2.5,-2.5 -7,-0.7 -7.6,3 l -24.8,162.3 c -0.4,2.7 1.9,5 4.6,4.6 l 162.4,-24.8 c 3.7,-0.6 5.4,-5.1 3,-7.6 z"
   id="path4"
   inkscape:connector-curvature="0"
   style="fill:#ffffff" />
	</g>
</g>
<g
   id="g10"
   transform="translate(2.4741802e-4,-0.59557348)">
</g>
<g
   id="g12"
   transform="translate(2.4741802e-4,-0.59557348)">
</g>
<g
   id="g14"
   transform="translate(2.4741802e-4,-0.59557348)">
</g>
<g
   id="g16"
   transform="translate(2.4741802e-4,-0.59557348)">
</g>
<g
   id="g18"
   transform="translate(2.4741802e-4,-0.59557348)">
</g>
<g
   id="g20"
   transform="translate(2.4741802e-4,-0.59557348)">
</g>
<g
   id="g22"
   transform="translate(2.4741802e-4,-0.59557348)">
</g>
<g
   id="g24"
   transform="translate(2.4741802e-4,-0.59557348)">
</g>
<g
   id="g26"
   transform="translate(2.4741802e-4,-0.59557348)">
</g>
<g
   id="g28"
   transform="translate(2.4741802e-4,-0.59557348)">
</g>
<g
   id="g30"
   transform="translate(2.4741802e-4,-0.59557348)">
</g>
<g
   id="g32"
   transform="translate(2.4741802e-4,-0.59557348)">
</g>
<g
   id="g34"
   transform="translate(2.4741802e-4,-0.59557348)">
</g>
<g
   id="g36"
   transform="translate(2.4741802e-4,-0.59557348)">
</g>
<g
   id="g38"
   transform="translate(2.4741802e-4,-0.59557348)">
</g>
</svg>