<?xml version="1.0" encoding="UTF-8" standalone="no"?>
<svg
   xmlns:dc="http://purl.org/dc/elements/1.1/"
   xmlns:cc="http://creativecommons.org/ns#"
   xmlns:rdf="http://www.w3.org/1999/02/22-rdf-syntax-ns#"
   xmlns:svg="http://www.w3.org/2000/svg"
   xmlns="http://www.w3.org/2000/svg"
   xmlns:sodipodi="http://sodipodi.sourceforge.net/DTD/sodipodi-0.dtd"
   xmlns:inkscape="http://www.inkscape.org/namespaces/inkscape"
   width="24px"
   height="24px"
   viewBox="0 0 24 24"
   fill="none"
   version="1.1"
   id="svg6"
   sodipodi:docname="scrolldown.svg"
   inkscape:version="0.92.5 (2060ec1f9f, 2020-04-08)">
  <metadata
     id="metadata12">
    <rdf:RDF>
      <cc:Work
         rdf:about="">
        <dc:format>image/svg+xml</dc:format>
        <dc:type
           rdf:resource="http://purl.org/dc/dcmitype/StillImage" />
      </cc:Work>
    </rdf:RDF>
  </metadata>
  <defs
     id="defs10" />
  <sodipodi:namedview
     pagecolor="#ffffff"
     bordercolor="#666666"
     borderopacity="1"
     objecttolerance="10"
     gridtolerance="10"
     guidetolerance="10"
     inkscape:pageopacity="0"
     inkscape:pageshadow="2"
     inkscape:window-width="1866"
     inkscape:window-height="1016"
     id="namedview8"
     showgrid="false"
     inkscape:zoom="9.8333333"
     inkscape:cx="12"
     inkscape:cy="12"
     inkscape:window-x="54"
     inkscape:window-y="27"
     inkscape:window-maximized="1"
     inkscape:current-layer="svg6" />
  <path
     d="m 15.25255,10.90128 c 0.21028,0.21028 0.21028,0.55125 0,0.76153 l -2.36411,2.36411 c -0.4907,0.4907 -1.28618,0.4907 -1.77688,0 L 8.747457,11.66281 c -0.210287,-0.21028 -0.210287,-0.55125 0,-0.76153 0.21028,-0.21028 0.551215,-0.21028 0.761502,0 l 2.364131,2.36418 c 0.07007,0.07007 0.18375,0.07007 0.25382,0 l 2.36411,-2.36418 c 0.21028,-0.21028 0.55125,-0.21028 0.76153,0 z"
     id="path2"
     style="clip-rule:evenodd;fill:#ffffff;fill-rule:evenodd;stroke-width:0.69999999"
     inkscape:connector-curvature="0" />
  <path
     d="m 12,6.076922 c -1.518426,0 -3.593695,0.139349 -4.889535,0.239743 -0.426153,0.033012 -0.760788,0.367647 -0.7938,0.7938 C 6.216271,8.406305 6.076922,10.481574 6.076922,12 c 0,1.51844 0.139349,3.59366 0.239743,4.8895 0.033012,0.42616 0.367647,0.76083 0.7938,0.79387 1.29584,0.10038 3.371109,0.23968 4.889535,0.23968 1.51844,0 3.59366,-0.1393 4.8895,-0.23968 0.42616,-0.03304 0.76083,-0.36771 0.79387,-0.79387 0.10038,-1.29584 0.23968,-3.37106 0.23968,-4.8895 0,-1.518426 -0.1393,-3.593695 -0.23968,-4.889535 C 17.65033,6.684312 17.31566,6.349677 16.8895,6.316665 15.59366,6.216271 13.51844,6.076922 12,6.076922 Z M 7.027284,5.242956 C 8.323733,5.14252 10.435829,5 12,5 c 1.56415,0 3.67626,0.14252 4.97273,0.242956 0.95529,0.074011 1.71031,0.829031 1.7843,1.784328 C 18.85748,8.323733 19,10.435829 19,12 c 0,1.56415 -0.14252,3.67626 -0.24297,4.97273 -0.07399,0.95529 -0.82901,1.71031 -1.7843,1.7843 C 15.67626,18.85748 13.56415,19 12,19 10.435829,19 8.323733,18.85748 7.027284,18.75703 6.071987,18.68304 5.316967,17.92802 5.242956,16.97273 5.14252,15.67626 5,13.56415 5,12 5,10.435829 5.14252,8.323733 5.242956,7.027284 5.316967,6.071987 6.071987,5.316967 7.027284,5.242956 Z"
     id="path4"
     style="clip-rule:evenodd;fill:#ffffff;fill-rule:evenodd;stroke-width:0.69999999"
     inkscape:connector-curvature="0" />
</svg>
