<?xml version="1.0" encoding="UTF-8" standalone="no"?>
<svg
   xmlns:dc="http://purl.org/dc/elements/1.1/"
   xmlns:cc="http://creativecommons.org/ns#"
   xmlns:rdf="http://www.w3.org/1999/02/22-rdf-syntax-ns#"
   xmlns:svg="http://www.w3.org/2000/svg"
   xmlns="http://www.w3.org/2000/svg"
   xmlns:sodipodi="http://sodipodi.sourceforge.net/DTD/sodipodi-0.dtd"
   xmlns:inkscape="http://www.inkscape.org/namespaces/inkscape"
   version="1.1"
   id="Icons"
   x="0px"
   y="0px"
   viewBox="0 0 32 32"
   style="enable-background:new 0 0 32 32;"
   xml:space="preserve"
   sodipodi:docname="layer.svg"
   inkscape:version="0.92.5 (2060ec1f9f, 2020-04-08)"><metadata
   id="metadata17"><rdf:RDF><cc:Work
       rdf:about=""><dc:format>image/svg+xml</dc:format><dc:type
         rdf:resource="http://purl.org/dc/dcmitype/StillImage" /></cc:Work></rdf:RDF></metadata><defs
   id="defs15" /><sodipodi:namedview
   pagecolor="#ffffff"
   bordercolor="#666666"
   borderopacity="1"
   objecttolerance="10"
   gridtolerance="10"
   guidetolerance="10"
   inkscape:pageopacity="0"
   inkscape:pageshadow="2"
   inkscape:window-width="1866"
   inkscape:window-height="1016"
   id="namedview13"
   showgrid="false"
   inkscape:zoom="7.375"
   inkscape:cx="16"
   inkscape:cy="16"
   inkscape:window-x="54"
   inkscape:window-y="27"
   inkscape:window-maximized="1"
   inkscape:current-layer="Icons" />
<style
   type="text/css"
   id="style2">
	.st0{fill:none;stroke:#000000;stroke-width:2;stroke-linecap:round;stroke-linejoin:round;stroke-miterlimit:10;}
</style>
<path
   d="M 21.220339,16.5125 C 18.349153,16.5125 16,18.861653 16,21.732839 c 0,2.871186 2.349153,5.220339 5.220339,5.220339 2.871186,0 5.220339,-2.349153 5.220339,-5.220339 0,-2.871186 -2.349153,-5.220339 -5.220339,-5.220339 z m 1.957627,5.872881 h -1.305085 v 1.305085 c 0,0.391526 -0.261017,0.652542 -0.652542,0.652542 -0.391525,0 -0.652542,-0.261016 -0.652542,-0.652542 v -1.305085 h -1.305085 c -0.391526,0 -0.652543,-0.261017 -0.652543,-0.652542 0,-0.391525 0.261017,-0.652542 0.652543,-0.652542 h 1.305085 v -1.305085 c 0,-0.391526 0.261017,-0.652543 0.652542,-0.652543 0.391525,0 0.652542,0.261017 0.652542,0.652543 v 1.305085 h 1.305085 c 0.391526,0 0.652542,0.261017 0.652542,0.652542 0,0.391525 -0.261016,0.652542 -0.652542,0.652542 z"
   id="path4"
   inkscape:connector-curvature="0"
   style="stroke-width:0.65254235;fill:#ffffff" />
<g
   id="g10"
   transform="matrix(0.65254237,0,0,0.65254237,5.559322,6.071822)"
   style="fill:#ffffff">
	<path
   d="M 14,26.8 2.9,20 4.8,18.9 C 5.3,18.6 5.4,18 5.1,17.5 4.8,17 4.2,16.9 3.7,17.2 l -3.3,2 C 0.2,19.3 0,19.7 0,20 c 0,0.3 0.2,0.7 0.5,0.9 l 13,8 c 0.1,0.1 0.3,0.1 0.5,0.1 0.2,0 0.4,0 0.5,-0.1 l 0.6,-0.3 C 14.8,28 14.6,27.4 14.4,26.7 Z"
   id="path6"
   inkscape:connector-curvature="0"
   style="fill:#ffffff" />
	<path
   d="m 27.5,11.1 -13,-8 c -0.3,-0.2 -0.7,-0.2 -1,0 l -13,8 C 0.2,11.3 0,11.7 0,12 c 0,0.3 0.2,0.7 0.5,0.9 l 13,8 c 0.1,0.1 0.3,0.1 0.5,0.1 0.2,0 0.4,0 0.5,-0.1 1.3,-4 5.1,-6.9 9.5,-6.9 0.5,0 1,0 1.5,0.1 l 2.1,-1.3 c 0.3,-0.2 0.5,-0.5 0.5,-0.9 0,-0.4 -0.3,-0.6 -0.6,-0.8 z"
   id="path8"
   inkscape:connector-curvature="0"
   style="fill:#ffffff" />
</g>
</svg>