<?xml version="1.0" encoding="UTF-8" standalone="no"?>
<!-- Generator: Adobe Illustrator 18.0.0, SVG Export Plug-In . SVG Version: 6.00 Build 0)  -->

<svg
   xmlns:dc="http://purl.org/dc/elements/1.1/"
   xmlns:cc="http://creativecommons.org/ns#"
   xmlns:rdf="http://www.w3.org/1999/02/22-rdf-syntax-ns#"
   xmlns:svg="http://www.w3.org/2000/svg"
   xmlns="http://www.w3.org/2000/svg"
   xmlns:sodipodi="http://sodipodi.sourceforge.net/DTD/sodipodi-0.dtd"
   xmlns:inkscape="http://www.inkscape.org/namespaces/inkscape"
   version="1.1"
   id="Capa_1"
   x="0px"
   y="0px"
   viewBox="0 0 422.555 422.555"
   style="enable-background:new 0 0 422.555 422.555;"
   xml:space="preserve"
   sodipodi:docname="brush-svgrepo-com.svg"
   inkscape:version="0.92.5 (2060ec1f9f, 2020-04-08)"><metadata
   id="metadata43"><rdf:RDF><cc:Work
       rdf:about=""><dc:format>image/svg+xml</dc:format><dc:type
         rdf:resource="http://purl.org/dc/dcmitype/StillImage" /></cc:Work></rdf:RDF></metadata><defs
   id="defs41" /><sodipodi:namedview
   pagecolor="#ffffff"
   bordercolor="#666666"
   borderopacity="1"
   objecttolerance="10"
   gridtolerance="10"
   guidetolerance="10"
   inkscape:pageopacity="0"
   inkscape:pageshadow="2"
   inkscape:window-width="2506"
   inkscape:window-height="1376"
   id="namedview39"
   showgrid="false"
   inkscape:zoom="0.55850719"
   inkscape:cx="11.638167"
   inkscape:cy="211.2775"
   inkscape:window-x="54"
   inkscape:window-y="27"
   inkscape:window-maximized="1"
   inkscape:current-layer="Capa_1" />
<g
   id="g6"
   transform="matrix(0.56733066,0,0,0.56733066,91.413294,91.413296)"
   style="fill:#ffffff">
	<path
   d="m 419.061,11.643 c -2.223,-2.127 -5.45,-3.139 -9.544,-3.139 -32.927,0 -122.005,65.392 -196.859,141.77 -42.696,43.557 -64.478,74.066 -72.961,96.074 6.455,2.162 13.001,5.199 19.671,9.167 5.219,3.105 10.092,6.77 14.468,10.88 0.006,0.002 0.008,0.004 0.014,0.006 8.528,8.007 14.971,17.444 19.188,27.578 21.773,-9.709 51.271,-32.1 92.405,-74.059 C 369.608,134.048 439.164,30.877 419.061,11.643 Z"
   id="path2"
   inkscape:connector-curvature="0"
   style="fill:#ffffff" />
	<path
   d="m 150.175,266.736 c -11.455,-6.818 -22.257,-10.794 -32.808,-12.057 -2.466,-0.295 -4.918,-0.443 -7.361,-0.443 -8.065,0 -16.189,1.62 -24.149,4.817 -30.825,12.389 -33.835,41.568 -36.491,67.315 -3.306,32.045 -6.979,52.036 -39.43,58.957 -5.942,1.268 -10.125,6.608 -9.93,12.682 0.195,6.074 4.711,11.136 10.723,12.02 18.16,2.67 35.401,4.023 51.246,4.024 0.004,0 0.007,0 0.011,0 34.558,0 63.052,-6.296 84.689,-18.712 19.855,-11.393 33.144,-27.572 38.43,-46.788 2.911,-10.582 3.135,-21.488 1.005,-31.951 -4.085,-20.066 -16.834,-38.497 -35.935,-49.864 z"
   id="path4"
   inkscape:connector-curvature="0"
   style="fill:#ffffff" />
</g>
<g
   id="g8">
</g>
<g
   id="g10">
</g>
<g
   id="g12">
</g>
<g
   id="g14">
</g>
<g
   id="g16">
</g>
<g
   id="g18">
</g>
<g
   id="g20">
</g>
<g
   id="g22">
</g>
<g
   id="g24">
</g>
<g
   id="g26">
</g>
<g
   id="g28">
</g>
<g
   id="g30">
</g>
<g
   id="g32">
</g>
<g
   id="g34">
</g>
<g
   id="g36">
</g>
</svg>