<?xml version="1.0" encoding="UTF-8" standalone="no"?>
<svg
   xmlns:dc="http://purl.org/dc/elements/1.1/"
   xmlns:cc="http://creativecommons.org/ns#"
   xmlns:rdf="http://www.w3.org/1999/02/22-rdf-syntax-ns#"
   xmlns:svg="http://www.w3.org/2000/svg"
   xmlns="http://www.w3.org/2000/svg"
   xmlns:sodipodi="http://sodipodi.sourceforge.net/DTD/sodipodi-0.dtd"
   xmlns:inkscape="http://www.inkscape.org/namespaces/inkscape"
   width="24px"
   height="24px"
   viewBox="0 0 24 24"
   version="1.1"
   id="svg9"
   sodipodi:docname="rename.svg"
   inkscape:version="0.92.5 (2060ec1f9f, 2020-04-08)">
  <metadata
     id="metadata15">
    <rdf:RDF>
      <cc:Work
         rdf:about="">
        <dc:format>image/svg+xml</dc:format>
        <dc:type
           rdf:resource="http://purl.org/dc/dcmitype/StillImage" />
      </cc:Work>
    </rdf:RDF>
  </metadata>
  <defs
     id="defs13" />
  <sodipodi:namedview
     pagecolor="#ffffff"
     bordercolor="#666666"
     borderopacity="1"
     objecttolerance="10"
     gridtolerance="10"
     guidetolerance="10"
     inkscape:pageopacity="0"
     inkscape:pageshadow="2"
     inkscape:window-width="1342"
     inkscape:window-height="710"
     id="namedview11"
     showgrid="false"
     inkscape:zoom="9.8333333"
     inkscape:cx="12"
     inkscape:cy="12"
     inkscape:window-x="54"
     inkscape:window-y="27"
     inkscape:window-maximized="0"
     inkscape:current-layer="svg9" />
  <!-- Uploaded to SVGRepo https://www.svgrepo.com -->
  <title
     id="title2">ic_fluent_text_font_24_filled</title>
  <desc
     id="desc4">Created with Sketch.</desc>
  <g
     id="ðŸ”-System-Icons"
     transform="matrix(0.60356511,0,0,0.60356511,4.7588753,4.7618867)"
     style="fill:#ffffff;fill-rule:evenodd;stroke:none;stroke-width:1">
    <g
       id="ic_fluent_text_font_24_filled"
       style="fill:#ffffff;fill-rule:nonzero">
      <path
         d="m 14.4381,5.8960598 c 0.36909,1.622e-4 0.704322,0.203051 0.877757,0.5215511 L 15.3675,6.52794 20.7106,20.0234 h 0.298 c 0.5523,0 1,0.4477 1,1 0,0.51285 -0.386027,0.935638 -0.883376,0.99342 l -0.116624,0.0067 -3.0087,-2.5e-4 c -0.5522,0 -0.9999,-0.4477 -0.9999,-1 0,-0.51285 0.386027,-0.935509 0.883376,-0.993273 L 18,20.0233 h 0.5595 l -0.8011,-2.0234 h -6.6526 l -0.8032,2.0234 H 11 c 0.5523,0 1,0.4477 1,1 0,0.51285 -0.386027,0.935509 -0.883376,0.993272 L 11,22.0233 H 8 c -0.55228,0 -1,-0.4477 -1,-1 0,-0.51285 0.3860357,-0.935509 0.8833779,-0.993273 L 8,20.0233 H 8.15081 L 13.5082,6.52711 c 0.1513,-0.3811 0.5199,-0.63124 0.9299,-0.6310502 z M 14.4365,9.6095 11.8997,15.9999 h 5.0669 z M 7.00057,2 c 0.4205,0 0.79607,0.2631 0.93976,0.65829 L 10.822,10.5839 9.71128,13.382 9.2088,12 H 4.79147 L 3.93981,14.3418 C 3.75105,14.8608 3.17727,15.1285 2.65825,14.9398 2.13922,14.751 1.87149,14.1772 2.06025,13.6582 L 6.06075,2.65822 C 6.20447,2.26304 6.58006,2 7.00057,2 Z M 7.00041,5.92618 5.51883,10 h 2.96279 z"
         id="ðŸŽ¨-Color"
         inkscape:connector-curvature="0"
         style="fill:#ffffff" />
    </g>
  </g>
</svg>
